<?xml version="1.0" encoding="UTF-8"?>
<svg id="Layer_1" xmlns="http://www.w3.org/2000/svg" version="1.1" viewBox="0 0 1920 1080">
  <!-- Generator: Adobe Illustrator 29.3.0, SVG Export Plug-In . SVG Version: 2.1.0 Build 146)  -->
  <defs>
    <style>
      .st0 {
        fill: #feeb88;
      }
    </style>
  </defs>
  <path class="st0" d="M203.6,234.7c3.1-2.4,6.7-4.2,10.7-5.3,91-23.6,151.2-19.7,214.8,13.9,4.4,2.3,8.5,5,12.3,8,37.2-17.6,74.1-27.9,99.7-29.4,49.1-2.9,101.1,14.1,147.8,47.7,36.4-28,78.9-50,126.2-65,1-.3,2.2-.7,3.7-1.2,140.2-47.1,246.2-12.3,310.5,25.1,26.4,15.4,50.9,34.6,73,57.2,94.2-42.4,193.5-56.8,283.4-22.9,80.3,30.3,150.3,92.9,202.3,181.1,44.7,75.9,66.1,153.1,71.2,200,1.8,16.3-10,30.9-26.3,32.6-16.3,1.8-30.9-10-32.7-26.3-9-82.8-78.5-272.8-235.5-332-78.3-29.5-161.3-10.3-222.7,14.9,39.8,55.4,68,123,80.5,196.3,20.1,118.2-5.1,232.3-67.4,305.3-55.6,65.1-123.4,102.9-190.9,106.5-53.6,2.9-104.4-15.7-143.2-52.3-52.3-49.3-76.3-121.4-67.3-202.9,7.9-71.7,40.9-145.7,90.6-202.9,56.5-65,126.7-125.1,202.5-168.8-14.7-13.2-30.5-24.8-47.1-34.5-53.7-31.3-142.7-60.2-261.8-20.2-1.8.6-3.3,1.1-4.5,1.5-36.6,11.7-69.7,28-98.6,48.5,55.6,58.6,86.7,132.9,83.8,200.9-3.7,85.5-47,142.1-115.7,151.6-61.4,8.4-117.3-29.5-142.6-96.7-33.3-88.5,24.6-174.6,49.3-211.4,10.3-15.4,21.9-29.9,34.5-43.5-32.6-20.9-67.1-31.4-99.2-29.5-16.9,1-41.3,7.8-66.8,18.8,7.7,16.5,12.5,33,15.4,45.3,10.6,45.3,12.2,107.3-15.1,145.2-35.7,49.6-91.6,49.7-128.4,28.9-23.7-13.4-39.5-35.5-45.8-64-8.2-37.4,1.8-84.2,24.9-116.5,14-19.6,32.5-37.1,53-52.2-42.9-17.3-86.7-16.9-152.7.2-15.8,4.1-32-5.4-36.1-21.3-3-11.8,1.4-23.8,10.5-30.8h0ZM420.7,465.3c3.2-2.5,6.3-5.7,9.3-9.8,12.2-16.8,14.5-58.6,5.5-97-2.7-11.6-6.1-21.7-9.9-30.3-19.4,13.1-36.7,28.3-48.6,45-13.5,18.8-19.9,47.9-15.2,69.2,2.6,11.9,8.2,20.1,17,25.1,2.6,1.5,23.2,12.3,41.9-2.2h0ZM726,590.2c25.8-20.1,32-58,33.1-82.6,2.3-52.2-24.2-112.7-69.4-159.6-11.5,12.1-21.9,25-31.2,38.8-22.9,34.1-65.6,97.6-43.1,157.4,12,32,39.1,64.3,79.1,58.8,12.9-1.8,23.3-6.4,31.6-12.9h0ZM1165.5,838.8c15.4-12,30.4-26.4,44.5-43,51-59.8,71.2-155.8,54-256.9-11.7-68.3-38.6-130.7-76.3-180.2-70.8,38.8-140.3,95.6-198.8,162.9-80.2,92.4-113.5,242.4-27.4,323.7,26.9,25.4,62.2,38.3,99.4,36.2,35.1-1.9,71-16.8,104.6-43h0Z"/>
</svg>