<svg width="24" height="25" viewBox="0 0 24 25" fill="none" xmlns="http://www.w3.org/2000/svg">
<g clip-path="url(#clip0_8_183)">
<path d="M16.9318 7.8458C17.3227 7.43862 17.9567 7.43862 18.3476 7.8458C18.7385 8.25312 18.7385 8.91358 18.3476 9.32076L10.8282 17.1538C10.4372 17.561 9.80312 17.561 9.41223 17.1538L5.65238 13.2373C5.26149 12.8301 5.26149 12.1696 5.65238 11.7624C6.04341 11.3551 6.67745 11.3551 7.06835 11.7624L10.1202 14.9415L16.9318 7.8458ZM11.9999 0C15.3132 0 18.3135 1.39934 20.4851 3.6614C22.6566 5.92332 24 9.04879 24 12.4999C24 15.9516 22.6568 19.0765 20.4851 21.3386C18.3135 23.6007 15.3132 25 11.9999 25C8.68644 25 5.68639 23.6008 3.51495 21.3386C1.3431 19.0765 0 15.9516 0 12.4999C0 9.04879 1.34337 5.92332 3.51495 3.6614C5.68639 1.39906 8.68644 0 11.9999 0ZM19.0692 5.13622C17.2602 3.25197 14.7608 2.08637 11.9999 2.08637C9.23898 2.08637 6.73952 3.25197 4.93077 5.13622C3.12189 7.02048 2.00291 9.62422 2.00291 12.4999C2.00291 15.3761 3.12189 17.9797 4.93077 19.8638C6.73952 21.748 9.23898 22.9135 11.9999 22.9135C14.7608 22.9135 17.2602 21.748 19.0692 19.8638C20.8781 17.9797 21.997 15.3761 21.997 12.4999C21.997 9.62422 20.8781 7.02048 19.0692 5.13622Z" fill="#1B8900"/>
</g>
<defs>
<clipPath id="clip0_8_183">
<rect width="24" height="25" fill="white"/>
</clipPath>
</defs>
</svg>
