<?xml version="1.0" encoding="UTF-8"?>
<svg id="Layer_1" xmlns="http://www.w3.org/2000/svg" version="1.1" viewBox="0 0 577.3 185.2">
  <!-- Generator: Adobe Illustrator 29.3.0, SVG Export Plug-In . SVG Version: 2.1.0 Build 146)  -->
  <g>
    <path d="M50.3,94.1c2,5.1,6.2,7.7,12.7,7.7s12.2-2,17.8-6.8l4,17.9c-7.2,5.2-13.3,7.1-24.5,7.1-19,0-30.8-12.4-30.8-33.9s12.1-32.3,32.3-32.3,24.5,7.1,24.5,19.6-10.4,20.3-35.9,20.8ZM50.3,86.2c11.3,0,17.3-3.5,17.3-9.2s-3.1-6-7.2-6c-7.3,0-11.2,5.1-11.3,15.2h1.2Z"/>
    <path d="M154.8,142h-20.9v-35.9c-3.1,9.3-9.4,13.9-19.6,13.9-16,0-24.7-11.4-24.7-33.3s8.7-32.9,24.9-32.9,16.7,4.6,19.6,14.7l2.5-13.4h18.3v87ZM133.9,86.8c0-9.3-4.4-14.4-12.1-14.4s-12.2,5.1-12.2,14.4,4.4,14.5,12.4,14.5,10.8-3.4,11.8-7.2v-7.3Z"/>
    <path d="M180.7,55v33.3c0,8.5,3,10.3,7.7,10.3s5.7-1.1,9.2-4.6v-39h20.9v63.8h-18.3l-2.5-16.8c-4.2,13-11.2,18-20.4,18s-17.5-6.3-17.5-22.6v-42.4h20.9Z"/>
    <path d="M256.7,81.1c-1.5-4.8-4.8-7-10.6-7s-11.1,2-16.3,7l-4-20.3c9.2-5.2,16.7-7.1,25.4-7.1,19.3,0,27.3,9.6,27.3,30.9v14c1,.4,2,.6,3.1.6s3-.4,4.8-1.1l-3.9,19.6c-2.7,1.5-5.8,2.1-8.9,2.1-7.5,0-12.4-3.6-14.7-10.2-4.1,6.7-10.2,10.2-17.8,10.2s-17-6.3-17-16.4,11.8-21.5,32.4-22.5ZM257.6,87.5c-7.2.2-11.9,4.1-11.9,10.8s2.7,6.7,6.2,6.7,4.1-.9,5.8-2.5c0-.9-.1-1.6-.1-2.4v-12.7Z"/>
    <path d="M309.7,118.7h-20.9V33.3h20.9v85.4Z"/>
  </g>
  <g>
    <path d="M350.7,43.9l10.6,4.7c-.2,0-2.1,4.7-5.1,11.3h11.3v11.5h-16.1l-13.6,31.4c-1.7,4.2-1.5,6.4-1.3,6.8.6.8,3.2,1.3,4.9,1.1,8.1-1.1,18.1-10.4,27.8-25.7l9.8,6.4c-8.3,13-21.2,28.9-36.1,30.6-.4.2-1.3.2-2.5.2-3.4,0-9.3-.8-13-5.5-3.4-4.5-3.4-10.6-.2-18.3,3-7.2,7.4-17.4,11.7-27h-8.3v-11.5h13.2c4-9.1,7-15.7,7-15.9Z"/>
    <path d="M433.1,84.9l9.8,5.7c-4.9,8.5-12.3,19.1-19.1,23.4-7.4,4.7-14,6.4-19.8,5.1-.2,0-.4,0-.6-.2-.2.8-.4,1.3-.6,1.9l-6.4,13.4c-10.8,21-20,31.4-28.9,32.7-.4.2-1.1.2-1.7.2-3.4,0-6.4-1.3-8.7-3.8-2.3-2.3-3.4-5.7-3.2-9.6.4-5.7,3.6-14.7,17-25.7,1.3-1.1,7-5.1,13.2-8.9-1.1.2-2.1.2-3.2.2-2.5,0-5.1-.4-7.2-1.5-10-4.2-11-15.9-7.6-24.6,7.2-19.5,10.8-28.9,10.8-28.9l10.8,4-11,28.9c-1.7,4.9-1.1,8.9,1.7,10.2,5.1,2.1,16.1-2.8,25.1-20.4,2.1-5.7,4.2-11.7,6.2-18.1.4-1.1.6-1.7.6-1.9l11,3.6c-.2.4-.4,1.1-.6,1.9-4.5,13.2-8.5,25.1-12.7,35.5,2.1,0,5.3-.8,10-3.8,2.8-1.7,8.3-7.6,15.3-19.3ZM365.8,155.6s5.9-.2,18.3-22.7l-5.9,4c-12.5,10.4-13.2,17.4-12.5,18.5,0,.2.2.2.2.2Z"/>
    <path d="M453.3,62.6l-2.3,6.2c8.1-4.2,15.5-3.6,20.4-.2,6.8,4.5,10.4,14.9,4.5,28.9-.4,1.1-1.1,2.1-1.7,3.2,4.5-3.6,8.9-8.9,13.2-15.9l9.8,6.2c-7.9,12.5-15.9,20.6-25.1,24.6-3.8,1.7-8.1,3.4-12.3,4.2,0,0-6.4.8-12.1.8s-3.6,0-4.9-.2c-3.6-.4-6.8-1.9-9.3-4.5l-14.2,38.2-10.8-4,34.4-91.5,10.6,4ZM442,108.2c1.5,1.1,3.6.8,5.7.4,6.6-1.5,13.8-7.2,17.4-15.7,1.7-4.2,2.3-7.6,1.9-10.6-.2-1.9-.8-3.4-2.1-4.2s-3-1.1-4.9-.6c-3,.8-5.9,2.5-9.1,5.5-3.6,3.6-7.4,8.3-10.2,15.1-.8,2.1-.8,4.2-.8,4.7,0,2.5.6,4.5,2.1,5.5Z"/>
    <path d="M530.8,112.7c-14.7,10.2-31.6,10.4-41.8,2.8-6.4-4.9-11.3-17-.2-33.3,3.2-4.9,8.7-10.8,15.5-14.4,5.1-2.8,11-4,17.2-3,11.5,2.1,14.2,14.7,10.2,21.9-1.3,2.5-3.8,5.5-8.3,7.9-13.4,7.2-23.4,7-29.5,5.3-.2.4-.2,1.1,0,1.5,0,2.3.8,4,2.1,5.1,6.8,5.1,18.3,3.8,28.2-3,2.8-1.9,5.3-4.2,7.6-6.8,4-4.7,7.9-11,7.9-11l10,5.9s-4.7,7.4-9.3,12.7c-2.8,3.2-6.2,6.2-9.6,8.5ZM517.9,84.2c1.9-1.1,3.2-2.1,3.8-3.2.8-1.7.4-4.5-2.1-5.1-3.6-.6-7,.4-10,1.9-4.9,2.5-8.9,7-11.3,10.6l-.2.2c4,.6,10.8.4,19.8-4.5Z"/>
  </g>
  <path d="M552.9,67.9c-2,0-3.9-.5-5.6-1.4-1.7-.9-3-2.2-4-3.9-1-1.7-1.5-3.6-1.5-5.7s.5-4,1.5-5.7c1-1.7,2.3-3,4-3.9s3.5-1.4,5.6-1.4,3.9.5,5.5,1.4c1.7.9,3,2.2,4,3.9,1,1.7,1.5,3.6,1.5,5.7s-.5,4-1.5,5.7c-1,1.7-2.3,3-4,3.9-1.7.9-3.5,1.4-5.5,1.4ZM552.9,66.2c1.7,0,3.3-.4,4.7-1.2,1.4-.8,2.5-1.9,3.3-3.3.8-1.4,1.2-3,1.2-4.8s-.4-3.4-1.2-4.9c-.8-1.4-1.9-2.5-3.3-3.3-1.4-.8-3-1.2-4.7-1.2s-3.3.4-4.7,1.2c-1.4.8-2.5,1.9-3.4,3.3-.8,1.4-1.2,3-1.2,4.9s.4,3.4,1.2,4.8c.8,1.4,2,2.5,3.4,3.3,1.4.8,3,1.2,4.7,1.2ZM549.5,63v-12.4h3.7c1.4,0,2.5.3,3.2.9.7.6,1,1.5,1,2.6s-.3,1.7-.8,2.2c-.5.6-1.2.9-2,1.1l3.3,5.6h-1.8l-3-5.4h-1.8v5.4h-1.7ZM551.2,56.2h1.8c.8,0,1.4-.2,1.9-.5.5-.3.8-.8.8-1.6s-.3-1.3-.8-1.6c-.5-.3-1.1-.5-1.9-.5h-1.8v4Z"/>
</svg>