<?xml version="1.0" encoding="UTF-8"?>
<svg id="Layer_1" xmlns="http://www.w3.org/2000/svg" xmlns:xlink="http://www.w3.org/1999/xlink" version="1.1" viewBox="0 0 500 500">
  <!-- Generator: Adobe Illustrator 29.3.0, SVG Export Plug-In . SVG Version: 2.1.0 Build 146)  -->
  <defs>
    <style>
      .st0 {
        fill: none;
      }

      .st1 {
        fill: #1b8900;
      }

      .st2 {
        fill: #ffdef0;
      }

      .st3 {
        clip-path: url(#clippath);
      }
    </style>
    <clipPath id="clippath">
      <rect class="st0" width="500" height="500"/>
    </clipPath>
  </defs>
  <rect class="st1" width="500" height="500"/>
  <g class="st3">
    <g>
      <path class="st2" d="M297.2,128.4c-6.9,5.1-12.8,11-17.7,17.6-9.3,12.9-16.7,26.5-22.4,40.8-1.1,2.7-1.3,5.8-4,8-1.5-2.2-1.9-4.6-2.7-6.9-5.6-16.9-12.1-33.5-21.5-49.1-4.2-7-9.3-13.3-16-18.7-17.4-14.1-38.8-11.8-51.8,5.4-5.8,7.6-9.5,16-12.1,24.8-3.3,11.7-4.6,23.5-4.9,35.5-.5,17.8,1.8,35.5,4.8,53.1,5.5,32,17.4,61.9,37.1,89.4,15.3,21.4,30.5,42.8,54.1,58.4,4.7,3.1,9.1,3.4,13.6,0,2.6-2,4.1-4.6,5.6-7.3,5.7-9.8,12.5-19,20-27.9,21.5-25.7,42.1-51.9,58-80.6,17.1-30.7,26.7-63.1,25.1-97.4-.7-14-3.5-27.7-13.2-39.4-13.5-16.4-34.1-18.6-51.9-5.6h0s0,0,0,0Z"/>
      <path class="st2" d="M-170.7,370.2c-2.7-.9-4.8-3.1-5-5.8-.2-3.6,2.9-6.7,7.1-6.9,17.4-.9,28.1-3.8,37.1-10.3-6.2-1.8-12-4.2-17-7.4-8.2-5.2-14.3-14.3-15.2-22.8-.7-6.4,1.4-12.1,6.1-16.5,7.3-6.9,20.9-10.6,33.5-2.7,9.6,6.1,14.1,19.2,15.1,29.5.3,2.8.4,6.6-.2,10.6,7.1.6,13.5.3,17.7-.6,7.9-1.8,15.5-6.3,21.8-12.9-4.1-2-8.1-4.3-11.8-6.8-8.9-6-29.8-20.2-28.6-41,.9-15.8,11.5-27.6,27-30,17.4-2.7,32.4,6.3,40,23.9,6.1,14.1,4.4,31.8-4.5,47.9,8.6,2.3,18,3.5,27.8,3.5h1.2c32.1.3,51.4-11.8,62-22.1,3.3-3.2,6.2-6.7,8.7-10.5-21.9-4-43.6-11.9-62.5-21.7-16.6-8.6-30.4-21.9-38-36.4-8.6-16.5-8.5-33.2.4-47.2,6.5-10.3,17.4-17.7,30.7-20.7,16.7-3.8,36.1-.5,54.8,9.4,20.9,11.1,36,33.3,40.4,59.5,2.7,16.2,1.2,32.4-4.1,46.7,16.9,1.1,38.6-.5,55.3-12,33.5-23.1,35.4-67.7,31-85.7-.8-3.5,1.8-7,5.9-7.7,4.1-.7,8.1,1.5,9,5.1,2.5,10.2,3.3,27.9-1.6,46.8-5.7,22.1-17.7,40-34.9,51.8-19.2,13.2-44.4,17-70.6,14.5-3.6,6.2-8,11.9-13.2,17-12.7,12.2-35.7,26.7-73.4,26.4-.4,0-.7,0-1,0-12.7,0-24.7-1.7-35.8-5.1-8.7,10.2-20,17.4-32.1,20.1-6.3,1.4-16.1,1.8-26.5.6-.7.9-1.5,1.7-2.4,2.5-12.8,11.4-27.1,16.3-51.1,17.5-1.1,0-2.1,0-3-.4h0s0,0,0,0ZM-136.1,307c-5.7-1.8-9.8,1.9-10.4,2.4-1.8,1.7-2.5,3.8-2.2,6.4.5,4.8,4.4,10.5,9.1,13.5,4.2,2.7,9.6,4.7,15.4,6.1.2-2.1.3-4.4,0-7-.8-8.7-4.7-17.3-9-20-1-.7-2.1-1.1-3-1.4h0ZM-71.8,259.9c-2.5-.8-5.4-1.1-8.7-.6-10.1,1.6-14.2,10.2-14.6,17.7-.8,14.1,14.6,24.5,22.9,30.1,3.3,2.3,6.9,4.3,10.6,6,7.3-12.9,9-27.4,4.3-38.2-2.2-5.1-6.7-12.6-14.5-15.1h0s0,0,0,0ZM15.4,177.9c-10.2-3.2-20.1-3.9-28.8-1.9-9.2,2.1-16.7,7.2-21.3,14.4-14.5,22.9,5.4,52.2,32.1,66.1,19.5,10.2,40.9,17.3,61.1,20.7,5.3-13,6.9-27.9,4.4-43-3.8-22.4-16.3-41.2-33.4-50.2-4.7-2.5-9.5-4.5-14.2-6h0s0,0,0,0Z"/>
      <path class="st2" d="M670.7,370.2c-.9.3-2,.4-3,.4-24-1.2-38.3-6.2-51.1-17.5-.9-.8-1.7-1.6-2.4-2.5-10.4,1.2-20.2.8-26.5-.6-12.1-2.7-23.4-9.8-32.2-20.1-11.1,3.4-23.1,5.1-35.8,5.1-.3,0-.6,0-1,0-37.8.3-60.8-14.2-73.4-26.4-5.2-5-9.6-10.7-13.2-17-26.2,2.5-51.5-1.2-70.6-14.5-17.1-11.8-29.2-29.7-34.9-51.8-4.9-19-4-36.6-1.6-46.8.9-3.5,4.9-5.8,9-5.1,4.1.7,6.7,4.2,5.9,7.7-4.3,18-2.4,62.6,31,85.7,16.7,11.5,38.4,13.1,55.3,12-5.3-14.3-6.8-30.4-4.1-46.7,4.4-26.2,19.5-48.4,40.4-59.5,18.6-9.9,38.1-13.2,54.8-9.4,13.2,3,24.1,10.4,30.7,20.7,8.8,13.9,9,30.7.4,47.2-7.6,14.5-21.4,27.8-38,36.4-18.8,9.8-40.6,17.6-62.5,21.7,2.5,3.8,5.5,7.3,8.7,10.5,10.6,10.2,29.9,22.4,62,22.1h1.2c9.8,0,19.1-1.1,27.8-3.5-8.9-16.1-10.6-33.8-4.5-47.9,7.6-17.7,22.6-26.6,40-23.9,15.6,2.4,26.2,14.2,27,30,1.1,20.8-19.7,35-28.6,41-3.7,2.5-7.7,4.8-11.8,6.8,6.3,6.6,13.8,11.2,21.8,12.9,4.2.9,10.6,1.2,17.7.6-.6-4-.4-7.8-.2-10.6,1-10.2,5.5-23.4,15.1-29.5,12.6-8,26.2-4.2,33.5,2.7,4.7,4.4,6.8,10.1,6.1,16.5-.9,8.4-7.1,17.6-15.2,22.8-5,3.2-10.8,5.6-17,7.4,9.1,6.6,19.7,9.4,37.1,10.3,4.2.2,7.3,3.3,7.1,6.9-.2,2.7-2.2,4.9-5,5.8h0s0,0,0,0ZM636.1,307c-1,.3-2,.8-3,1.4-4.3,2.7-8.1,11.3-9,20-.3,2.6-.2,5,0,7,5.7-1.4,11.1-3.5,15.4-6.1,4.8-3,8.6-8.7,9.1-13.5.3-2.7-.4-4.8-2.2-6.4-.5-.5-4.7-4.2-10.4-2.4h0ZM571.8,260c-7.9,2.5-12.3,10-14.5,15.1-4.7,10.8-3,25.3,4.3,38.2,3.7-1.8,7.3-3.8,10.6-6,8.3-5.6,23.6-16,22.9-30.1-.4-7.5-4.4-16.2-14.6-17.7-3.3-.5-6.2-.2-8.7.6h0s0,0,0,0ZM484.6,177.8c-4.7,1.5-9.5,3.5-14.2,6-17.1,9.1-29.6,27.9-33.4,50.2-2.6,15.1-.9,30.1,4.4,43,20.3-3.3,41.6-10.5,61.1-20.7,26.8-13.9,46.7-43.2,32.1-66.1-4.5-7.2-12.1-12.3-21.3-14.4-8.7-2-18.6-1.3-28.8,1.9h0s0,0,0,0Z"/>
    </g>
  </g>
</svg>