<?xml version="1.0" encoding="UTF-8"?>
<svg id="Layer_1" xmlns="http://www.w3.org/2000/svg" version="1.1" viewBox="0 0 1440 507">
  <!-- Generator: Adobe Illustrator 29.3.0, SVG Export Plug-In . SVG Version: 2.1.0 Build 146)  -->
  <defs>
    <style>
      .st0 {
        fill: #feeb88;
      }
    </style>
  </defs>
  <path class="st0" d="M773.6,115.3c-7.9,5.7-14.6,12.4-20,20-10.6,14.6-18.9,30.1-25.4,46.3-1.2,3.1-1.5,6.6-4.6,9.1-1.7-2.5-2.2-5.2-3.1-7.8-6.4-19.1-13.8-38-24.5-55.7-4.8-7.9-10.6-15.1-18.1-21.3-19.7-16-44-13.4-58.8,6.2-6.5,8.7-10.8,18.2-13.7,28.1-3.8,13.2-5.2,26.7-5.5,40.3-.5,20.2,2,40.3,5.4,60.3,6.2,36.3,19.7,70.2,42.1,101.5,17.4,24.2,34.6,48.5,61.4,66.2,5.4,3.5,10.4,3.8,15.4,0,2.9-2.3,4.6-5.3,6.3-8.2,6.5-11.1,14.2-21.6,22.6-31.7,24.4-29.1,47.7-58.9,65.8-91.4,19.4-34.9,30.3-71.5,28.5-110.6-.7-15.9-4-31.4-15-44.7-15.4-18.7-38.7-21.1-58.9-6.4h0s0,0,0,0Z"/>
  <path class="st0" d="M242.7,389.7c-3.1-1-5.4-3.5-5.6-6.5-.3-4.1,3.3-7.6,8.1-7.9,19.7-1,31.8-4.3,42.1-11.7-7-2-13.7-4.8-19.3-8.3-9.3-5.9-16.2-16.3-17.3-25.8-.8-7.3,1.6-13.7,6.9-18.8,8.3-7.8,23.7-12.1,38-3,10.9,6.9,16,21.8,17.1,33.4.3,3.2.4,7.5-.2,12,8,.7,15.4.4,20.1-.7,9-2,17.6-7.2,24.7-14.7-4.7-2.3-9.2-4.8-13.4-7.7-10.1-6.8-33.8-22.9-32.5-46.5,1-18,13-31.3,30.7-34,19.8-3.1,36.8,7.1,45.4,27.2,6.9,16,5,36.1-5.1,54.3,9.8,2.7,20.4,4,31.5,3.9h1.4c36.4.3,58.4-13.4,70.4-25,3.7-3.6,7-7.6,9.9-11.9-24.8-4.6-49.5-13.4-70.9-24.6-18.8-9.8-34.5-24.9-43.1-41.3-9.8-18.7-9.6-37.7.4-53.5,7.4-11.7,19.8-20.1,34.8-23.5,18.9-4.4,41-.6,62.1,10.6,23.7,12.6,40.8,37.8,45.9,67.5,3.1,18.4,1.4,36.7-4.6,53,19.2,1.2,43.8-.6,62.7-13.7,38-26.2,40.1-76.9,35.2-97.3-1-4,2-7.9,6.7-8.8,4.6-.8,9.2,1.7,10.2,5.7,2.8,11.6,3.8,31.6-1.8,53.1-6.5,25-20.1,45.4-39.6,58.8-21.7,15-50.4,19.2-80.1,16.4-4.1,7.1-9.1,13.6-15,19.3-14.4,13.9-40.5,30.3-83.3,30-.4,0-.8,0-1.1,0-14.4,0-28-1.9-40.6-5.7-9.9,11.6-22.7,19.7-36.5,22.8-7.2,1.6-18.3,2-30.1.7-.8,1-1.7,2-2.7,2.9-14.5,12.9-30.8,18.5-57.9,19.9-1.2,0-2.4,0-3.4-.4h0s0,0,0,0ZM282,317.9c-6.5-2-11.2,2.1-11.8,2.7-2,1.9-2.8,4.3-2.5,7.3.6,5.4,5,11.9,10.4,15.3,4.8,3.1,10.9,5.4,17.4,7,.3-2.3.3-5,0-8-.9-9.9-5.3-19.6-10.2-22.7-1.2-.8-2.3-1.3-3.4-1.6h0ZM354.9,264.6c-2.9-.9-6.1-1.2-9.9-.6-11.5,1.8-16.1,11.6-16.5,20.1-.9,16,16.6,27.8,25.9,34.2,3.8,2.6,7.8,4.8,12.1,6.8,8.3-14.6,10.2-31.1,4.9-43.4-2.5-5.8-7.6-14.3-16.5-17.1h0s0,0,0,0ZM453.8,171.5c-11.6-3.6-22.8-4.4-32.7-2.2-10.4,2.4-19,8.2-24.2,16.3-16.5,26,6.1,59.2,36.5,75,22.1,11.5,46.4,19.7,69.4,23.5,6-14.7,7.8-31.6,4.9-48.8-4.3-25.4-18.4-46.7-37.9-57-5.4-2.9-10.8-5.1-16.1-6.8h0s0,0,0,0Z"/>
  <path class="st0" d="M1197.3,389.7c-1.1.3-2.2.5-3.4.4-27.2-1.4-43.4-7-57.9-19.9-1-.9-1.9-1.8-2.7-2.9-11.8,1.3-22.9.9-30.1-.7-13.8-3.1-26.6-11.2-36.5-22.8-12.5,3.9-26.2,5.8-40.6,5.7-.3,0-.7,0-1.1,0-42.8.4-69-16.1-83.3-30-5.9-5.7-10.9-12.2-15-19.3-29.7,2.8-58.4-1.4-80.1-16.4-19.4-13.4-33.1-33.7-39.6-58.8-5.5-21.5-4.6-41.6-1.8-53.1,1-4,5.5-6.6,10.2-5.7,4.6.8,7.6,4.8,6.7,8.8-4.9,20.4-2.8,71,35.2,97.3,18.9,13.1,43.5,14.9,62.7,13.7-6-16.3-7.7-34.5-4.6-53,5-29.7,22.2-54.9,45.9-67.5,21.1-11.2,43.2-15,62.1-10.6,15,3.4,27.4,11.8,34.8,23.5,10,15.8,10.2,34.8.4,53.5-8.6,16.5-24.3,31.5-43.1,41.3-21.4,11.1-46.1,20-70.9,24.6,2.9,4.3,6.2,8.3,9.9,11.9,12,11.6,33.9,25.4,70.3,25h1.4c11.1,0,21.7-1.3,31.5-3.9-10.1-18.2-12-38.4-5.1-54.3,8.7-20.1,25.6-30.2,45.4-27.2,17.7,2.7,29.7,16.1,30.7,34,1.3,23.6-22.4,39.7-32.5,46.5-4.2,2.9-8.7,5.4-13.4,7.7,7.1,7.5,15.7,12.7,24.7,14.7,4.8,1.1,12.1,1.3,20.1.7-.6-4.5-.5-8.8-.2-12,1.1-11.6,6.2-26.5,17.1-33.4,14.3-9.1,29.7-4.8,38,3,5.3,5,7.7,11.5,6.9,18.8-1.1,9.5-8,19.9-17.3,25.8-5.6,3.6-12.3,6.3-19.3,8.3,10.3,7.4,22.4,10.7,42.1,11.7,4.7.3,8.3,3.8,8.1,7.9-.2,3-2.5,5.6-5.6,6.5h0s0,0,0,0ZM1158.1,317.9c-1.1.3-2.2.9-3.4,1.6-4.9,3.1-9.2,12.8-10.2,22.7-.3,3-.2,5.6,0,8,6.5-1.6,12.6-3.9,17.4-7,5.4-3.4,9.8-9.9,10.4-15.3.3-3-.5-5.4-2.4-7.3-.6-.6-5.3-4.7-11.8-2.7h0ZM1085.1,264.6c-8.9,2.8-14,11.3-16.5,17.1-5.3,12.2-3.4,28.7,4.9,43.4,4.2-2,8.3-4.3,12.1-6.8,9.4-6.4,26.8-18.2,25.9-34.2-.5-8.6-5-18.3-16.5-20.1-3.7-.6-7-.3-9.9.6h0s0,0,0,0ZM986.2,171.5c-5.3,1.7-10.7,3.9-16.1,6.8-19.4,10.3-33.6,31.6-37.9,57-2.9,17.2-1.1,34.1,4.9,48.8,23-3.8,47.2-11.9,69.4-23.5,30.4-15.8,53-49,36.5-75-5.2-8.1-13.7-13.9-24.2-16.3-9.8-2.3-21.1-1.5-32.7,2.2h0s0,0,0,0Z"/>
</svg>