<svg width="19" height="19" viewBox="0 0 19 19" fill="none" xmlns="http://www.w3.org/2000/svg">
<g clip-path="url(#clip0_8_220)">
<path d="M16.2292 15.8333H6.72917C5.63746 15.8333 4.75 14.9451 4.75 13.8542V1.97917C4.75 0.88825 5.63746 0 6.72917 0H13.8605C14.5904 0 15.3037 0.296083 15.8199 0.811458L17.3969 2.38846C17.9202 2.91254 18.2083 3.60842 18.2083 4.34862V13.8542C18.2083 14.9451 17.3209 15.8333 16.2292 15.8333ZM6.72917 0.791667C6.07446 0.791667 5.54167 1.32446 5.54167 1.97917V13.8542C5.54167 14.5089 6.07446 15.0417 6.72917 15.0417H16.2292C16.8839 15.0417 17.4167 14.5089 17.4167 13.8542V4.34862C17.4167 3.82058 17.2108 3.32342 16.8372 2.94896L15.2602 1.37196C14.892 1.00304 14.3814 0.791667 13.8605 0.791667H6.72917Z" fill="#5B5B5B"/>
<path d="M12.2707 19H2.77067C1.67896 19 0.791504 18.1118 0.791504 17.0208V4.35417C0.791504 3.26325 1.67896 2.375 2.77067 2.375H3.56234C3.78084 2.375 3.95817 2.55233 3.95817 2.77083C3.95817 2.98933 3.78084 3.16667 3.56234 3.16667H2.77067C2.11596 3.16667 1.58317 3.69946 1.58317 4.35417V17.0208C1.58317 17.6755 2.11596 18.2083 2.77067 18.2083H12.2707C12.9254 18.2083 13.4582 17.6755 13.4582 17.0208C13.4582 16.8023 13.6355 16.625 13.854 16.625C14.0725 16.625 14.2498 16.8023 14.2498 17.0208C14.2498 18.1118 13.3624 19 12.2707 19Z" fill="#5B5B5B"/>
<path d="M14.6457 6.33335H8.31234C8.09384 6.33335 7.9165 6.15602 7.9165 5.93752C7.9165 5.71902 8.09384 5.54169 8.31234 5.54169H14.6457C14.8642 5.54169 15.0415 5.71902 15.0415 5.93752C15.0415 6.15602 14.8642 6.33335 14.6457 6.33335Z" fill="#5B5B5B"/>
<path d="M14.6457 9.49998H8.31234C8.09384 9.49998 7.9165 9.32265 7.9165 9.10415C7.9165 8.88565 8.09384 8.70831 8.31234 8.70831H14.6457C14.8642 8.70831 15.0415 8.88565 15.0415 9.10415C15.0415 9.32265 14.8642 9.49998 14.6457 9.49998Z" fill="#5B5B5B"/>
<path d="M14.6457 12.6667H8.31234C8.09384 12.6667 7.9165 12.4893 7.9165 12.2708C7.9165 12.0523 8.09384 11.875 8.31234 11.875H14.6457C14.8642 11.875 15.0415 12.0523 15.0415 12.2708C15.0415 12.4893 14.8642 12.6667 14.6457 12.6667Z" fill="#5B5B5B"/>
</g>
<defs>
<clipPath id="clip0_8_220">
<rect width="19" height="19" fill="white"/>
</clipPath>
</defs>
</svg>
